<svg width="19" height="17" viewBox="0 0 19 17" fill="none" xmlns="http://www.w3.org/2000/svg">
<path d="M13.9531 0.5C16.5106 0.5 18.4999 2.61558 18.5 5.54785C18.5 7.1047 17.8898 8.43547 16.7471 9.83301C15.5917 11.246 13.9291 12.6847 11.8691 14.4639C11.1731 15.065 10.3822 15.7484 9.55957 16.4775H9.55859C9.54172 16.4924 9.52107 16.5 9.5 16.5C9.47892 16.5 9.45827 16.4924 9.44141 16.4775H9.44043C8.61793 15.7486 7.82744 15.0647 7.13184 14.4639C5.07158 12.6844 3.40841 11.2461 2.25293 9.83301C1.11013 8.43542 0.5 7.10469 0.5 5.54785C0.500109 2.61558 2.48942 0.5 5.04688 0.5C5.96286 0.5 6.80014 0.791855 7.54785 1.37793C8.27305 1.94639 8.76491 2.67981 9.05957 3.22559L9.5 4.04004L9.94043 3.22559C10.2351 2.67983 10.727 1.94638 11.4521 1.37793C12.1999 0.791855 13.0371 0.5 13.9531 0.5Z" stroke="#677294" stroke-opacity="0.5"/>
</svg>
