<svg width="24" height="28" viewBox="0 0 24 28" fill="none" xmlns="http://www.w3.org/2000/svg">
<path d="M19.9393 0.774279C19.6631 0.296686 19.1488 0 18.5975 0H12.835V6.81629H23.4339L19.9393 0.774279Z" fill="#0EBE7F"/>
<path d="M11.2206 0H5.40369C4.85123 0 4.33703 0.297224 4.0608 0.775893L0.579102 6.81629H11.2205V0H11.2206Z" fill="#0EBE7F"/>
<path d="M0 8.43164V25.6595C0 26.7068 0.852379 27.5586 1.89966 27.5586H22.1003C23.1476 27.5586 24 26.7068 24 25.6595V8.43164H0ZM15.6663 15.6765L11.489 19.8539C11.3312 20.0116 11.1244 20.0908 10.9177 20.0908C10.7109 20.0908 10.5041 20.0116 10.3469 19.8539L8.38858 17.896C8.0736 17.581 8.0736 17.0695 8.38858 16.754C8.70411 16.4384 9.21566 16.4384 9.53119 16.754L10.9177 18.141L14.5243 14.5345C14.8398 14.2189 15.3514 14.2189 15.6664 14.5345C15.9819 14.85 15.9819 15.361 15.6663 15.6765Z" fill="#0EBE7F"/>
</svg>
