<svg width="72" height="70" viewBox="0 0 72 70" fill="none" xmlns="http://www.w3.org/2000/svg">
<path d="M7.49996 30.7083C3.366 30.7083 0 34.0743 0 38.2082V62.2083C0 66.3423 3.366 69.7083 7.49996 69.7083H16.5C18.189 69.7083 19.7429 69.1383 21 68.1902V30.7083H7.49996Z" fill="#0EBE7F"/>
<path d="M72 41.9583C72 40.1553 71.2861 38.4753 70.047 37.2362C71.4481 35.7033 72.162 33.6482 71.967 31.5092C71.616 27.6962 68.1809 24.7082 64.143 24.7082H45.612C46.53 21.9211 47.9999 16.8122 47.9999 12.7082C47.9999 6.20121 42.471 0.708252 38.9999 0.708252C35.883 0.708252 33.6569 2.46325 33.561 2.53525C33.207 2.8203 33 3.2523 33 3.70821V13.8812L24.36 32.5983L24 32.7812V64.9353C26.442 66.0873 29.5319 66.7083 31.5 66.7083H59.0371C62.3041 66.7083 65.1631 64.5062 65.835 61.4673C66.18 59.9043 65.979 58.3293 65.2921 56.9613C67.509 55.8453 69.0001 53.5622 69.0001 50.9583C69.0001 49.8963 68.7571 48.8793 68.2951 47.9583C70.5121 46.8423 72 44.5593 72 41.9583Z" fill="#0EBE7F"/>
</svg>
