<svg width="119" height="120" viewBox="0 0 119 120" fill="none" xmlns="http://www.w3.org/2000/svg">
<path d="M29.2046 117.362C39.6416 117.362 48.1025 113.914 48.1025 109.661C48.1025 105.408 39.6416 101.96 29.2046 101.96C18.7675 101.96 10.3066 105.408 10.3066 109.661C10.3066 113.914 18.7675 117.362 29.2046 117.362Z" fill="#FFDB56"/>
<path d="M46.4536 106.516C43.5019 109.202 36.891 111.074 29.2031 111.074C21.5153 111.074 14.9044 109.202 11.9527 106.516C10.8972 107.477 10.3057 108.54 10.3057 109.66C10.3057 113.914 18.7663 117.362 29.2034 117.362C39.6402 117.362 48.1011 113.914 48.1011 109.66C48.1006 108.54 47.5086 107.477 46.4536 106.516Z" fill="#FFBB24"/>
<path d="M29.2041 37.5493C14.0401 37.5493 1.74707 49.8421 1.74707 65.0063C1.74707 88.0982 29.2041 109.345 29.2041 109.345C29.2041 109.345 56.661 88.0982 56.661 65.0063C56.661 49.8421 44.3682 37.5493 29.2041 37.5493ZM29.2041 75.9573C23.1561 75.9573 18.2531 71.0543 18.2531 65.0063C18.2531 58.9583 23.1561 54.0551 29.2041 54.0551C35.2521 54.0551 40.1553 58.9581 40.1553 65.0063C40.1553 71.0543 35.2523 75.9573 29.2041 75.9573Z" fill="#FF4A4A"/>
<path d="M29.2034 37.5493C28.14 37.5493 27.0915 37.6117 26.0596 37.7296C39.7426 39.2896 50.3728 50.9057 50.3728 65.0063C50.3728 83.2347 33.2665 100.31 26.0596 106.696C27.9825 108.4 29.2034 109.345 29.2034 109.345C29.2034 109.345 56.6604 88.0986 56.6604 65.0068C56.6604 49.8421 44.3676 37.5493 29.2034 37.5493Z" fill="#E7343F"/>
<path d="M96.1485 63.0875C104.17 63.0875 110.673 60.4376 110.673 57.1686C110.673 53.8997 104.17 51.2498 96.1485 51.2498C88.1268 51.2498 81.624 53.8997 81.624 57.1686C81.624 60.4376 88.1268 63.0875 96.1485 63.0875Z" fill="#FFDB56"/>
<path d="M108.454 54.025C105.885 55.6916 101.337 56.8001 96.1502 56.8001C90.9639 56.8001 86.4154 55.6916 83.846 54.025C82.4414 54.936 81.626 56.0133 81.626 57.1688C81.626 60.438 88.1285 63.0877 96.1502 63.0877C104.172 63.0877 110.674 60.4376 110.674 57.1688C110.674 56.0133 109.859 54.9362 108.454 54.025Z" fill="#FFBB24"/>
<path d="M96.1502 1.74658C84.4955 1.74658 75.0479 11.1945 75.0479 22.8492C75.0479 40.597 96.1502 56.9267 96.1502 56.9267C96.1502 56.9267 117.253 40.597 117.253 22.8492C117.253 11.1945 107.805 1.74658 96.1502 1.74658ZM96.1502 31.2659C91.5018 31.2659 87.7336 27.4977 87.7336 22.8492C87.7336 18.2007 91.5018 14.4325 96.1502 14.4325C100.799 14.4325 104.567 18.2007 104.567 22.8492C104.567 27.4977 100.799 31.2659 96.1502 31.2659Z" fill="#FF4A4A"/>
<path d="M96.1506 1.74658C95.0822 1.74658 94.0327 1.82661 93.0068 1.97991C103.17 3.49808 110.965 12.263 110.965 22.849C110.965 36.277 98.8871 48.8913 93.0068 54.237C94.8984 55.9568 96.1506 56.9265 96.1506 56.9265C96.1506 56.9265 117.253 40.5968 117.253 22.849C117.253 11.1945 107.805 1.74658 96.1506 1.74658Z" fill="#E7343F"/>
<path d="M73.4951 58.9155C74.4596 58.9155 75.2417 58.1338 75.2417 57.1688C75.2417 56.2039 74.4596 55.4222 73.4951 55.4222H72.6976C72.117 55.4222 71.5335 55.4606 70.9626 55.5367C70.0068 55.6639 69.3347 56.5419 69.4617 57.4985C69.5787 58.3764 70.3287 59.015 71.1909 59.015C71.2676 59.015 71.3453 59.0101 71.4235 58.9997C71.842 58.9441 72.2707 58.9159 72.6979 58.9159H73.4951V58.9155Z" fill="black"/>
<path d="M67.7206 107.824C67.7178 107.824 67.7153 107.824 67.7125 107.824L65.4057 107.835C64.4412 107.839 63.6628 108.625 63.667 109.589C63.6714 110.551 64.4526 111.328 65.4134 111.328C65.4162 111.328 65.419 111.328 65.4215 111.328L67.7283 111.318C68.6928 111.313 69.4712 110.528 69.467 109.563C69.4628 108.601 68.6814 107.824 67.7206 107.824Z" fill="black"/>
<path d="M75.5671 81.539C76.5318 81.539 77.3137 80.7571 77.3137 79.7924C77.3137 78.8277 76.5318 78.0458 75.5671 78.0458H73.2603C72.2956 78.0458 71.5137 78.8274 71.5137 79.7924C71.5137 80.7571 72.2956 81.539 73.2603 81.539H75.5671Z" fill="black"/>
<path d="M62.4837 63.3083C62.7919 63.5298 63.1481 63.6363 63.5012 63.6363C64.0444 63.6363 64.5799 63.3835 64.9212 62.9084C65.3004 62.3806 65.7349 61.8893 66.2125 61.4487C66.9216 60.7947 66.966 59.6897 66.3121 58.9807C65.6582 58.2721 64.5536 58.2274 63.8441 58.8811C63.193 59.4815 62.6007 60.1508 62.0838 60.8706C61.5213 61.6545 61.7004 62.7458 62.4837 63.3083Z" fill="black"/>
<path d="M76.9479 107.782C76.9452 107.782 76.9426 107.782 76.9398 107.782L74.6332 107.793C73.6688 107.797 72.8904 108.583 72.8945 109.547C72.899 110.509 73.6799 111.286 74.6409 111.286C74.6437 111.286 74.6463 111.286 74.6491 111.286L76.9556 111.275C77.9201 111.271 78.6985 110.485 78.6943 109.521C78.6901 108.559 77.9087 107.782 76.9479 107.782Z" fill="black"/>
<path d="M58.4921 107.866C58.4893 107.866 58.4868 107.866 58.484 107.866L56.1772 107.877C55.2127 107.881 54.4343 108.667 54.4385 109.631C54.4429 110.593 55.2239 111.37 56.1849 111.37C56.1877 111.37 56.1902 111.37 56.193 111.37L58.4998 111.359C59.4643 111.355 60.2427 110.569 60.2385 109.605C60.2343 108.643 59.4534 107.866 58.4921 107.866Z" fill="black"/>
<path d="M66.6688 79.8017C67.2485 79.8017 67.8154 79.5135 68.1479 78.9866C68.6624 78.1707 68.4182 77.0922 67.6023 76.5774C67.0538 76.2313 66.5373 75.827 66.0686 75.3763C65.3732 74.7075 64.2673 74.7296 63.5992 75.4243C62.9304 76.1194 62.952 77.2251 63.6471 77.8937C64.2864 78.5085 64.9901 79.0596 65.7389 79.5319C66.0279 79.7147 66.3501 79.8017 66.6688 79.8017Z" fill="black"/>
<path d="M63.3087 70.322C63.1914 69.7199 63.1319 69.1007 63.1319 68.4809L63.1324 68.3839C63.1438 67.4194 62.3709 66.6285 61.4062 66.6173C61.3995 66.6171 61.3925 66.6171 61.3855 66.6171C60.4303 66.6171 59.6505 67.3857 59.6394 68.3434L59.6387 68.4812C59.6387 69.3247 59.7199 70.1689 59.8799 70.9903C60.0423 71.8243 60.7732 72.4029 61.5926 72.4029C61.7031 72.4029 61.8156 72.3924 61.9285 72.3703C62.8753 72.1858 63.4932 71.2688 63.3087 70.322Z" fill="black"/>
<path d="M84.7946 81.539C85.7593 81.539 86.5412 80.7571 86.5412 79.7924C86.5412 78.8277 85.7593 78.0458 84.7946 78.0458H82.4878C81.5231 78.0458 80.7412 78.8274 80.7412 79.7924C80.7412 80.7571 81.5231 81.539 82.4878 81.539H84.7946Z" fill="black"/>
<path d="M111.753 84.7194C112.269 84.7194 112.78 84.4914 113.125 84.055C113.722 83.298 113.593 82.1995 112.836 81.6019C112.163 81.0708 111.444 80.5881 110.698 80.1684C109.858 79.6948 108.792 79.9923 108.319 80.8328C107.846 81.6731 108.143 82.7385 108.984 83.2117C109.572 83.5434 110.14 83.9243 110.672 84.3437C110.992 84.597 111.373 84.7194 111.753 84.7194Z" fill="black"/>
<path d="M104.383 107.543C103.811 107.622 103.225 107.663 102.641 107.666L102.314 107.667C101.35 107.672 100.572 108.458 100.576 109.422C100.581 110.384 101.362 111.16 102.323 111.16C102.326 111.16 102.328 111.16 102.331 111.16L102.657 111.159C103.395 111.156 104.137 111.103 104.861 111.003C105.817 110.871 106.484 109.989 106.352 109.034C106.22 108.078 105.337 107.409 104.383 107.543Z" fill="black"/>
<path d="M111.593 104.062C111.103 104.529 110.572 104.961 110.016 105.347C109.224 105.896 109.027 106.985 109.576 107.778C109.915 108.267 110.459 108.529 111.013 108.529C111.356 108.529 111.703 108.428 112.006 108.218C112.71 107.73 113.382 107.183 114.002 106.592C114.701 105.926 114.727 104.82 114.062 104.122C113.397 103.423 112.291 103.397 111.593 104.062Z" fill="black"/>
<path d="M117.46 95.6394C116.514 95.4609 115.599 96.0844 115.42 97.0324C115.295 97.697 115.117 98.3567 114.89 98.993C114.566 99.9014 115.04 100.901 115.949 101.225C116.142 101.294 116.341 101.327 116.535 101.327C117.253 101.327 117.925 100.881 118.18 100.166C118.468 99.3589 118.694 98.5221 118.853 97.6789C119.032 96.7311 118.408 95.8178 117.46 95.6394Z" fill="black"/>
<path d="M115.273 86.7652C114.399 87.1732 114.021 88.2124 114.429 89.0866C114.715 89.6996 114.955 90.3398 115.141 90.9886C115.361 91.7547 116.06 92.2539 116.819 92.2539C116.978 92.2539 117.14 92.2318 117.301 92.1857C118.229 91.9196 118.764 90.9521 118.498 90.025C118.261 89.2004 117.958 88.388 117.594 87.6094C117.186 86.7354 116.148 86.3576 115.273 86.7652Z" fill="black"/>
<path d="M94.0222 81.539C94.9869 81.539 95.7688 80.7571 95.7688 79.7924C95.7688 78.8277 94.9869 78.0458 94.0222 78.0458H91.7154C90.7506 78.0458 89.9688 78.8274 89.9688 79.7924C89.9688 80.7571 90.7506 81.539 91.7154 81.539H94.0222Z" fill="black"/>
<path d="M86.1757 107.74C86.1729 107.74 86.1704 107.74 86.1676 107.74L83.8608 107.751C82.8963 107.755 82.1179 108.541 82.1221 109.505C82.1265 110.467 82.9075 111.244 83.8685 111.244C83.8713 111.244 83.8738 111.244 83.8766 111.244L86.1834 111.233C87.1479 111.229 87.9263 110.443 87.9221 109.479C87.9179 108.517 87.1367 107.74 86.1757 107.74Z" fill="black"/>
<path d="M102.583 81.539C102.78 81.539 102.977 81.5434 103.172 81.552C103.198 81.5534 103.225 81.5539 103.251 81.5539C104.18 81.5539 104.953 80.8218 104.994 79.8848C105.037 78.921 104.29 78.1051 103.327 78.0628C103.079 78.0516 102.829 78.0463 102.583 78.0463H100.943C99.9782 78.0463 99.1963 78.8279 99.1963 79.7929C99.1963 80.7576 99.9782 81.5395 100.943 81.5395L102.583 81.539Z" fill="black"/>
<path d="M95.4025 107.699C95.3997 107.699 95.3972 107.699 95.3944 107.699L93.0873 107.709C92.1229 107.713 91.3445 108.499 91.3486 109.464C91.3528 110.426 92.134 111.202 93.095 111.202C93.0978 111.202 93.1004 111.202 93.1032 111.202L95.41 111.192C96.3745 111.188 97.1528 110.402 97.1487 109.437C97.1445 108.475 96.3633 107.699 95.4025 107.699Z" fill="black"/>
</svg>
