<svg width="7" height="13" viewBox="0 0 7 13" fill="none" xmlns="http://www.w3.org/2000/svg">
<mask id="path-1-inside-1_93_149" fill="white">
<path d="M5.78954 6.51079L0.146101 12.139C-0.0489985 12.3336 -0.0494259 12.6495 0.145147 12.8446C0.339777 13.0397 0.655672 13.0401 0.850801 12.8456L6.84755 6.86505C7.04262 6.67045 7.04304 6.35453 6.8485 6.1594L0.867957 0.162649C0.66996 -0.0290916 0.354027 -0.024022 0.162286 0.173976C-0.0247402 0.367127 -0.025155 0.673723 0.161348 0.867349L5.78954 6.51079Z"/>
</mask>
<path d="M5.78954 6.51079L0.146101 12.139C-0.0489985 12.3336 -0.0494259 12.6495 0.145147 12.8446C0.339777 13.0397 0.655672 13.0401 0.850801 12.8456L6.84755 6.86505C7.04262 6.67045 7.04304 6.35453 6.8485 6.1594L0.867957 0.162649C0.66996 -0.0290916 0.354027 -0.024022 0.162286 0.173976C-0.0247402 0.367127 -0.025155 0.673723 0.161348 0.867349L5.78954 6.51079Z" fill="black"/>
<path d="M5.78954 6.51079L6.49569 7.21885L7.20375 6.51271L6.4976 5.80464L5.78954 6.51079ZM0.146101 12.139L-0.560049 11.4309L-0.560102 11.431L0.146101 12.139ZM0.145147 12.8446L-0.562969 13.5507L-0.562757 13.551L0.145147 12.8446ZM0.850801 12.8456L1.55684 13.5538L1.55695 13.5537L0.850801 12.8456ZM6.84755 6.86505L7.5537 7.57311L7.5538 7.57301L6.84755 6.86505ZM6.8485 6.1594L7.55667 5.45335L7.55656 5.45325L6.8485 6.1594ZM0.867957 0.162649L1.57602 -0.5435L1.56987 -0.549662L1.56362 -0.555717L0.867957 0.162649ZM0.162286 0.173976L-0.55608 -0.521689L-0.556117 -0.521651L0.162286 0.173976ZM0.161348 0.867349L-0.558882 1.56108L-0.552852 1.56735L-0.546714 1.5735L0.161348 0.867349ZM5.08339 5.80273L-0.560049 11.4309L0.852251 12.8471L6.49569 7.21885L5.08339 5.80273ZM-0.560102 11.431C-1.14618 12.0156 -1.14747 12.9646 -0.562969 13.5507L0.853262 12.1385C1.04861 12.3345 1.04819 12.6516 0.852304 12.847L-0.560102 11.431ZM-0.562757 13.551C0.0218035 14.1368 0.970659 14.1382 1.55684 13.5538L0.144758 12.1374C0.340686 11.9421 0.657751 11.9426 0.85305 12.1383L-0.562757 13.551ZM1.55695 13.5537L7.5537 7.57311L6.1414 6.15699L0.144651 12.1375L1.55695 13.5537ZM7.5538 7.57301C8.13978 6.98843 8.14107 6.03951 7.55667 5.45335L6.14033 6.86544C5.94502 6.66954 5.94545 6.35247 6.14129 6.15709L7.5538 7.57301ZM7.55656 5.45325L1.57602 -0.5435L0.159895 0.868799L6.14044 6.86555L7.55656 5.45325ZM1.56362 -0.555717C0.968887 -1.13166 0.0198706 -1.11643 -0.55608 -0.521689L0.880653 0.869641C0.688184 1.06839 0.371033 1.07348 0.172292 0.881015L1.56362 -0.555717ZM-0.556117 -0.521651C-1.11785 0.0584721 -1.11917 0.979401 -0.558882 1.56108L0.881578 0.173614C1.06886 0.368045 1.06837 0.67578 0.880689 0.869603L-0.556117 -0.521651ZM-0.546714 1.5735L5.08148 7.21694L6.4976 5.80464L0.869411 0.1612L-0.546714 1.5735Z" fill="#677294" mask="url(#path-1-inside-1_93_149)"/>
</svg>
