<svg width="24" height="23" viewBox="0 0 24 23" fill="none" xmlns="http://www.w3.org/2000/svg">
<path d="M23.3812 16.8349C23.4445 16.5096 23.4237 16.1393 23.3167 15.754C22.6153 13.2275 20.5165 8.0545 18.7724 5.92398C18.3148 5.36491 17.4331 5.41321 16.9219 5.92398C16.697 6.14897 16.5721 6.43554 16.5454 6.72939C16.4085 6.60274 16.2348 6.5153 16.0432 6.49028C16.0432 6.49028 11.6197 5.93906 11.566 5.94606H9.55438C8.89888 5.94606 8.70705 6.32618 8.70705 6.79339V13.2511H7.23066V6.32601C7.23066 5.9834 6.95189 5.70463 6.60929 5.70463H0.621375C0.278772 5.70463 0 5.9834 0 6.32601C0 6.32601 0.00214657 16.0502 0.00214657 16.6792C0.00214657 17.4018 0.587878 17.9875 1.31037 17.9875H2.59413C2.52781 18.2575 2.49194 18.5395 2.49194 18.8297C2.49194 20.7788 4.07792 22.3644 6.02728 22.3644C7.97654 22.3644 9.5624 20.7788 9.5624 18.8297C9.5624 18.5395 9.52647 18.2575 9.46021 17.9875H13.4168V18.8542C13.4168 19.5395 13.9743 20.097 14.6595 20.097H14.6833C15.0147 20.097 15.3259 19.9671 15.5594 19.7312C15.7929 19.4952 15.9196 19.1828 15.9163 18.8514L15.9075 17.9875H17.0317C16.9654 18.2575 16.9295 18.5395 16.9295 18.8297C16.9295 20.7788 18.5155 22.3644 20.4649 22.3644C22.4141 22.3644 24 20.7788 24 18.8297C23.9999 18.0901 23.7711 17.4031 23.3812 16.8349ZM20.4648 17.4956C21.2004 17.4956 21.7988 18.0941 21.7988 18.8297C21.7988 19.5653 21.2004 20.1638 20.4648 20.1638C19.7289 20.1638 19.1302 19.5653 19.1302 18.8297C19.1302 18.0941 19.7288 17.4956 20.4648 17.4956ZM7.36126 18.8297C7.36126 19.5653 6.76282 20.1638 6.02723 20.1638C5.29135 20.1638 4.69268 19.5653 4.69268 18.8297C4.69268 18.0941 5.29135 17.4956 6.02723 17.4956C6.76282 17.4956 7.36126 18.0941 7.36126 18.8297ZM15.8609 13.4415C15.8539 12.7579 15.292 12.2017 14.6084 12.2017H12.5405V7.97903L13.5516 8.10325C13.6339 8.48144 13.9702 8.76479 14.3729 8.76479H17.9124L18.1868 11.0505L15.8675 14.087L15.8609 13.4415Z" fill="#0EBE7F"/>
<path d="M10.3167 4.97112C11.6873 4.97112 12.8023 3.85609 12.8023 2.48544C12.8023 2.31118 12.7841 2.14109 12.7498 1.97682L13.2951 1.96609C13.62 1.95965 13.9702 1.73347 14.1097 1.4399L14.2926 1.05498C14.3795 0.872128 14.375 0.681197 14.2801 0.531106C14.1853 0.381129 14.015 0.295097 13.8111 0.295097L11.5006 0.300463C11.1484 0.108854 10.745 0 10.3167 0C8.94608 0 7.83105 1.11497 7.83105 2.48556C7.83111 3.85609 8.94614 4.97112 10.3167 4.97112Z" fill="#0EBE7F"/>
</svg>
