<svg width="28" height="28" viewBox="0 0 28 28" fill="none" xmlns="http://www.w3.org/2000/svg">
<path d="M22.4643 11.0717C25.5167 11.0717 28 8.58838 28 5.53605C28 2.48373 25.5167 0.000366211 22.4643 0.000366211C19.412 0.000366211 16.9287 2.48367 16.9287 5.536C16.9287 8.58833 19.412 11.0717 22.4643 11.0717ZM20.1034 4.53128L21.5639 5.99171L24.6546 2.90105L25.8147 4.06113L21.5639 8.31194L18.9433 5.69137L20.1034 4.53128Z" fill="#0EBE7F"/>
<path d="M6.46877 20.4688H24.1565L24.9775 12.2579C24.1951 12.5513 23.3484 12.7123 22.4648 12.7123C18.5078 12.7123 15.2885 9.49298 15.2885 5.53602C15.2885 4.92527 15.3654 4.33213 15.5097 3.76562H5.70489L5.32831 0H0V1.64062H3.84355L5.57747 18.9798C4.52364 19.349 3.76562 20.353 3.76562 21.5312C3.76562 23.0217 4.97826 24.2343 6.46877 24.2343H7.73795C7.5979 24.5606 7.52008 24.9198 7.52008 25.2969C7.52008 26.7874 8.73266 28 10.2232 28C11.7137 28 12.9263 26.7874 12.9263 25.2969C12.9263 24.9198 12.8485 24.5607 12.7084 24.2343H17.1745C17.0344 24.5606 16.9566 24.9198 16.9566 25.2969C16.9566 26.7874 18.1693 28 19.6598 28C21.1503 28 22.3629 26.7874 22.3629 25.2969C22.3629 24.9198 22.2851 24.5607 22.145 24.2343H24.1563V22.5937H6.46877C5.8829 22.5937 5.40624 22.1171 5.40624 21.5312C5.40624 20.9454 5.8829 20.4688 6.46877 20.4688ZM17.8979 15.0625H19.5385V16.7031H17.8979V15.0625ZM14.1211 15.0625H15.7618V16.7031H14.1211V15.0625ZM10.3442 15.0625H11.9849V16.7031H10.3442V15.0625Z" fill="#0EBE7F"/>
</svg>
