<svg width="27" height="19" viewBox="0 0 27 19" fill="none" xmlns="http://www.w3.org/2000/svg">
<path d="M26.9091 4.36222V2.94318C26.9091 1.3177 25.5914 0 23.9659 0H2.94318C1.3177 0 0 1.3177 0 2.94318V4.36222C0 4.50733 0.117675 4.625 0.262784 4.625H26.6463C26.7914 4.625 26.9091 4.50733 26.9091 4.36222Z" fill="#0EBE7F"/>
<path d="M0 6.56955V15.5568C0 17.1822 1.3177 18.4999 2.94318 18.4999H23.9659C25.5914 18.4999 26.9091 17.1822 26.9091 15.5568V6.56955C26.9091 6.42444 26.7914 6.30676 26.6463 6.30676H0.262784C0.117675 6.30676 0 6.42444 0 6.56955ZM6.72727 13.4545C6.72727 13.9189 6.35076 14.2954 5.88636 14.2954H5.04545C4.58106 14.2954 4.20455 13.9189 4.20455 13.4545V12.6136C4.20455 12.1492 4.58106 11.7727 5.04545 11.7727H5.88636C6.35076 11.7727 6.72727 12.1492 6.72727 12.6136V13.4545Z" fill="#0EBE7F"/>
</svg>
