<svg width="124" height="113" viewBox="0 0 124 113" fill="none" xmlns="http://www.w3.org/2000/svg">
<path d="M3.61914 2.18103H17.5036V54.1542C17.5036 57.9726 14.38 61.0962 10.5616 61.0962C6.74331 61.0962 3.61969 57.9726 3.61969 54.1542V2.18103H3.61914Z" fill="#D9DADA"/>
<path d="M3.61914 2.18103H16.4821V54.6931C16.4821 56.8994 15.487 58.8849 13.9241 60.2222C12.926 60.7785 11.7795 61.0964 10.5619 61.0964C6.74358 61.0964 3.61914 57.9728 3.61914 54.1537V2.18103Z" fill="#EEF3F7"/>
<path d="M5.05469 19.2545V54.1841C5.05469 57.2321 7.53929 59.736 10.562 59.736C13.5855 59.736 16.0693 57.2318 16.0693 54.1841V19.2545H5.05469Z" fill="#FF5B62"/>
<path d="M2.33011 0.258179H18.7938C19.8691 0.258179 20.7406 1.12968 20.7406 2.20471C20.7406 3.27975 19.8688 4.15125 18.7938 4.15125H2.33011C1.2548 4.15125 0.383301 3.27975 0.383301 2.20471C0.383025 1.1294 1.25508 0.258179 2.33011 0.258179Z" fill="#EEF3F7"/>
<path d="M20.7406 2.20502C20.7406 3.27509 19.865 4.15128 18.7944 4.15128H2.32907C1.259 4.15128 0.382812 3.27564 0.382812 2.20502H20.7406Z" fill="#CCD8DB"/>
<path d="M9.20601 23.907C9.90128 23.907 10.4656 24.4713 10.4656 25.1666C10.4656 25.8618 9.90128 26.4261 9.20601 26.4261C8.50992 26.4261 7.94565 25.8618 7.94565 25.1666C7.94592 24.4705 8.51019 23.907 9.20601 23.907ZM9.87674 45.3244C10.0618 45.3244 10.2124 45.4745 10.2124 45.6601C10.2124 45.8451 10.0623 45.9957 9.87674 45.9957C9.69085 45.9957 9.5411 45.8457 9.5411 45.6601C9.5411 45.4742 9.69113 45.3244 9.87674 45.3244ZM8.95339 39.5287C9.64866 39.5287 10.2129 40.0929 10.2129 40.7882C10.2129 41.4843 9.64866 42.0478 8.95339 42.0478C8.25729 42.0478 7.69385 41.4835 7.69385 40.7882C7.69357 40.0929 8.25784 39.5287 8.95339 39.5287ZM12.3131 33.9855C13.4262 33.9855 14.3291 34.8885 14.3291 36.0007C14.3291 37.1138 13.4262 38.0168 12.3131 38.0168C11.2 38.0168 10.2979 37.1138 10.2979 36.0007C10.2976 34.8885 11.2 33.9855 12.3131 33.9855Z" fill="#FEFEFE"/>
<path d="M106.789 12.1811H29.2915V112.742H106.789V12.1811Z" fill="#0EBE7F"/>
<path d="M32.0791 15.6595H101.643L104.001 109.715H34.4371L32.0791 15.6595Z" fill="#DCE3DB"/>
<path d="M101.641 15.659H33.2393V107.401H101.641V15.659Z" fill="white"/>
<path d="M59.0632 9.73553H77.7967C79.1456 9.73553 80.2493 10.8393 80.2493 12.1882V20.2399H56.6104V12.1887C56.6104 10.8395 57.7143 9.73553 59.0632 9.73553Z" fill="#666666"/>
<path d="M56.1022 19.6318H80.755C81.2765 19.6318 81.699 20.0543 81.699 20.5758V20.5767C81.699 21.0982 81.2765 21.5207 80.755 21.5207H56.1022C55.5807 21.5207 55.1582 21.0982 55.1582 20.5767V20.5758C55.1582 20.0546 55.581 19.6318 56.1022 19.6318Z" fill="#B0B0B0"/>
<path d="M65.9657 7.29148L63.9717 19.6318H62.9458L64.934 7.32154C64.3683 6.53747 64.0807 5.59702 64.0807 4.67394C64.0807 4.08237 64.1987 3.49604 64.4367 2.95825C64.6775 2.41576 65.0404 1.9243 65.5286 1.53075C67.0807 0.278379 69.7714 0.277 71.3235 1.52992C71.8128 1.92458 72.1768 2.41742 72.4187 2.96183C72.6572 3.50073 72.7761 4.09037 72.7761 4.68332C72.7761 5.60336 72.4907 6.53967 71.9272 7.32154L73.9154 19.6318H72.8895L70.8955 7.29148C70.8657 7.13511 70.912 6.98149 71.0077 6.86925C71.5122 6.23879 71.7673 5.45554 71.7673 4.68443C71.7673 4.22744 71.6771 3.77735 71.4964 3.36945C71.318 2.96735 71.0502 2.60413 70.6936 2.31593C69.514 1.36389 67.34 1.36527 66.1613 2.31675C65.8052 2.60358 65.5388 2.96542 65.3615 3.36587C65.1822 3.77211 65.0928 4.22054 65.0928 4.67505C65.0928 5.45388 65.3537 6.24596 65.8659 6.88138C65.9624 7.0008 65.9949 7.15166 65.9682 7.29121L65.9657 7.29148Z" fill="#FEFEFE"/>
<path d="M112.045 40.5012L107.279 37.01L89.9243 60.6991L94.6896 64.1903L112.045 40.5012Z" fill="#0F7986"/>
<path d="M89.9223 60.7001L94.6871 64.1914L89.7557 67.802L87.9658 66.4907L89.9223 60.7001Z" fill="#FF5B62"/>
<path d="M119.815 22.2562L122.329 24.0988C123.054 24.6288 123.211 25.6553 122.682 26.3787L112.281 40.5762C112.254 40.6134 112.201 40.6214 112.164 40.5944L107.152 36.9231C107.116 36.8955 107.107 36.8436 107.134 36.8064L117.535 22.6089C118.065 21.8855 119.09 21.727 119.815 22.2573V22.2562Z" fill="#FF5B62"/>
<path d="M122.683 26.3779L112.279 40.5789C112.251 40.6123 112.204 40.62 112.168 40.5963L112.165 40.5935L111.559 40.1495L122.849 24.7372C123.085 25.2576 123.042 25.8872 122.683 26.3779Z" fill="#ED4C54"/>
<path d="M88.4039 66.8112L89.319 67.4819L87.715 69.6709C87.5307 69.9221 87.1739 69.9778 86.9223 69.7933C86.6711 69.6091 86.6154 69.2522 86.7999 69.0007L88.4039 66.8112Z" fill="#0EBE7F"/>
<path d="M117.481 22.6838L123.667 27.2156L124 27.4599L123.742 27.8116L112.818 42.7244L112.718 42.8612L112.552 42.8971L111.474 43.1351C111.008 43.1798 110.808 42.442 111.337 42.3008L112.25 42.0992L122.817 27.6748L116.965 23.3876L117.48 22.6852V22.6841H117.481V22.6838Z" fill="#FAD24D"/>
<path d="M112.046 40.5007L111.455 40.0678L94.0996 63.7569L94.6905 64.1898L112.046 40.5007Z" fill="#076673"/>
<path d="M59.7449 32.7016C59.4244 32.7016 59.1641 32.4415 59.1641 32.1208C59.1641 31.8 59.4241 31.5399 59.7449 31.5399H69.3328L71.4845 26.3258C71.6056 26.0305 71.944 25.8893 72.2402 26.0101C72.3916 26.0721 72.5024 26.1915 72.5579 26.3327L72.5601 26.3319L75.7515 34.3889L78.4675 29.7895C78.6305 29.5143 78.9866 29.4227 79.2615 29.5857C79.3487 29.6375 79.4174 29.7081 79.4654 29.7895L81.0407 32.2041L83.3234 29.7763C83.5424 29.5435 83.91 29.5319 84.1425 29.7509C84.1864 29.7925 84.2225 29.8389 84.2512 29.8893L85.177 31.5411H97.6105C97.931 31.5411 98.1913 31.8011 98.1913 32.1219C98.1913 32.4423 97.9312 32.7027 97.6105 32.7027H84.8378V32.7019C84.6345 32.7019 84.4379 32.5946 84.332 32.4057L83.6265 31.1469L81.3804 33.5348V33.5339C81.3487 33.5665 81.3134 33.5974 81.2737 33.6227C81.0065 33.7965 80.6468 33.7209 80.4731 33.4526L78.9924 31.1814L76.165 35.9694C76.1029 36.0905 75.9984 36.1901 75.8621 36.2433C75.5646 36.3608 75.2259 36.2143 75.1084 35.917L72.0085 28.0917L70.2727 32.2989C70.1971 32.5317 69.9787 32.7002 69.7208 32.7002H59.746L59.7449 32.7016Z" fill="#0EBE7F"/>
<path d="M59.8705 46.7847H39.3765V49.092H59.8705V46.7847Z" fill="#0EBE7F"/>
<path d="M45.383 53.2763H39.6421V59.0172H45.383V53.2763Z" fill="#D9DADA"/>
<path d="M69.7887 53.2762H64.0479V59.0171H69.7887V53.2762Z" fill="#D9DADA"/>
<path d="M59.8705 69.0037H39.3765V71.311H59.8705V69.0037Z" fill="#0EBE7F"/>
<path d="M45.3835 75.4981H39.6426V81.239H45.3835V75.4981Z" fill="#D9DADA"/>
<path d="M69.7897 75.4981H64.0488V81.239H69.7897V75.4981Z" fill="#D9DADA"/>
<path d="M58.519 89.9148H98.115V91.0949H58.519V89.9148ZM58.519 97.8554H87.1694V99.0355H58.519V97.8554ZM58.519 93.8851H98.115V95.0652H58.519V93.8851Z" fill="#D9DADA"/>
<path d="M47.1445 75.7665H56.1508V76.9466H47.1445V75.7665ZM47.1445 79.3132H53.6615V80.4933H47.1445V79.3132Z" fill="#D9DADA"/>
<path d="M72.4688 75.7665H81.475V76.9466H72.4688V75.7665ZM72.4688 79.3132H78.9857V80.4933H72.4688V79.3132Z" fill="#D9DADA"/>
<path d="M47.1445 53.4453H56.1508V54.6254H47.1445V53.4453ZM47.1445 56.992H53.6615V58.1721H47.1445V56.992Z" fill="#D9DADA"/>
<path d="M72.4688 53.4453H81.475V54.6254H72.4688V53.4453ZM72.4688 56.992H78.9857V58.1721H72.4688V56.992Z" fill="#D9DADA"/>
<path d="M45.4636 39.0566C49.8788 39.0566 53.458 35.4774 53.458 31.0622C53.458 26.6471 49.8788 23.0679 45.4636 23.0679C41.0484 23.0679 37.4692 26.6471 37.4692 31.0622C37.4692 35.4774 41.0484 39.0566 45.4636 39.0566Z" fill="#FF5B62"/>
<path d="M43.9172 25.3619H47.0136V29.5145H51.1661V32.6108H47.0136V36.7634H43.9172V32.6108H39.7646V29.5145H43.9172V25.3619Z" fill="#FEFEFE"/>
<path d="M64.4909 55.4651C64.359 55.3311 64.3604 55.1157 64.4953 54.9839C64.6293 54.852 64.8447 54.8534 64.9766 54.9874L66.1382 56.172L69.2841 52.7637C69.4116 52.6253 69.6272 52.6159 69.7662 52.7436C69.9047 52.871 69.9132 53.0867 69.7864 53.2257L66.3974 56.8968L66.3858 56.9092C66.2518 57.041 66.0364 57.0396 65.9038 56.9056L64.4914 55.4651H64.4909Z" fill="#0EBE7F"/>
<path d="M41.4211 55.4652C41.2892 55.3312 41.2906 55.1158 41.4255 54.984C41.5595 54.8522 41.7749 54.8535 41.9067 54.9876L43.0684 56.1721L46.2143 52.7639C46.3417 52.6254 46.5574 52.616 46.6964 52.7437C46.8348 52.8711 46.8434 53.0868 46.7165 53.2258L43.3276 56.8971L43.316 56.9096C43.182 57.0414 42.9666 57.04 42.8339 56.906L41.4216 55.4655H41.4211V55.4652Z" fill="#0EBE7F"/>
<path d="M41.9149 76.1124C41.8018 75.9993 41.8018 75.8153 41.9149 75.7017C42.028 75.5886 42.2125 75.5886 42.3255 75.7017L45.5898 78.966C45.7029 79.0791 45.7029 79.2636 45.5898 79.3766C45.4767 79.4897 45.2922 79.4897 45.1792 79.3766L41.9149 76.1124Z" fill="#FF5B62"/>
<path d="M45.5898 76.1124C45.7029 75.9993 45.7029 75.8153 45.5898 75.7017C45.4767 75.5886 45.2922 75.5886 45.1792 75.7017L41.9149 78.966C41.8018 79.0791 41.8018 79.2636 41.9149 79.3766C42.028 79.4897 42.2125 79.4897 42.3255 79.3766L45.5898 76.1124Z" fill="#FF5B62"/>
<path d="M65.7418 75.8442C65.5926 75.695 65.5926 75.4531 65.7418 75.3045C65.891 75.1553 66.1329 75.1553 66.2815 75.3045L70.5745 79.5974C70.7237 79.7466 70.7237 79.9885 70.5745 80.1372C70.4253 80.2864 70.1834 80.2864 70.0348 80.1372L65.7418 75.8442Z" fill="#FF5B62"/>
<path d="M70.5745 75.8442C70.7237 75.695 70.7237 75.4531 70.5745 75.3045C70.4253 75.1553 70.1834 75.1553 70.0348 75.3045L65.7418 79.5974C65.5926 79.7466 65.5926 79.9885 65.7418 80.1372C65.891 80.2864 66.1329 80.2864 66.2815 80.1372L70.5745 75.8442Z" fill="#FF5B62"/>
</svg>
